<?xml version="1.0" encoding="UTF-8" standalone="no"?>
<!-- Created with Inkscape (http://www.inkscape.org/) -->
<svg
   xmlns:dc="http://purl.org/dc/elements/1.1/"
   xmlns:cc="http://creativecommons.org/ns#"
   xmlns:rdf="http://www.w3.org/1999/02/22-rdf-syntax-ns#"
   xmlns:svg="http://www.w3.org/2000/svg"
   xmlns="http://www.w3.org/2000/svg"
   xmlns:sodipodi="http://sodipodi.sourceforge.net/DTD/sodipodi-0.dtd"
   xmlns:inkscape="http://www.inkscape.org/namespaces/inkscape"
   width="125.3576"
   height="127.96403"
   id="svg2393"
   sodipodi:version="0.32"
   inkscape:version="0.46"
   version="1.0"
   sodipodi:docname="filezaar_logo.svg"
   inkscape:output_extension="org.inkscape.output.svg.inkscape"
   inkscape:export-filename="/home/ska/Escritorio/Inbox/filezaar_brand.png"
   inkscape:export-xdpi="90"
   inkscape:export-ydpi="90">
  <defs
     id="defs2395">
    <linearGradient
       id="linearGradient5444">
      <stop
         id="stop5446"
         offset="0"
         style="stop-color:#729fcf;stop-opacity:1;" />
      <stop
         style="stop-color:#3465a4;stop-opacity:1;"
         offset="0.5"
         id="stop4547" />
      <stop
         id="stop5448"
         offset="1"
         style="stop-color:#204ab7;stop-opacity:1;" />
    </linearGradient>
    <inkscape:perspective
       sodipodi:type="inkscape:persp3d"
       inkscape:vp_x="0 : 526.18109 : 1"
       inkscape:vp_y="0 : 1000 : 0"
       inkscape:vp_z="744.09448 : 526.18109 : 1"
       inkscape:persp3d-origin="372.04724 : 350.78739 : 1"
       id="perspective2401" />
  </defs>
  <sodipodi:namedview
     id="base"
     pagecolor="#ffffff"
     bordercolor="#666666"
     borderopacity="1.0"
     gridtolerance="10000"
     guidetolerance="10"
     objecttolerance="10"
     inkscape:pageopacity="0.0"
     inkscape:pageshadow="2"
     inkscape:zoom="4.1587326"
     inkscape:cx="124.90451"
     inkscape:cy="59.121467"
     inkscape:document-units="px"
     inkscape:current-layer="layer1"
     showgrid="false"
     inkscape:window-width="1680"
     inkscape:window-height="971"
     inkscape:window-x="0"
     inkscape:window-y="25" />
  <metadata
     id="metadata2398">
    <rdf:RDF>
      <cc:Work
         rdf:about="">
        <dc:format>image/svg+xml</dc:format>
        <dc:type
           rdf:resource="http://purl.org/dc/dcmitype/StillImage" />
      </cc:Work>
    </rdf:RDF>
  </metadata>
  <g
     inkscape:label="Layer 1"
     inkscape:groupmode="layer"
     id="layer1"
     transform="translate(-580.17834,-151.23731)">
    <path
       style="opacity:1;fill:#008000;fill-opacity:1;display:inline"
       d="M 613.5767,248.93565 C 598.60333,233.78628 585.91476,220.70296 585.37991,219.86162 C 582.45192,215.25577 584.74738,212.19668 613.37551,182.55256 C 637.12845,157.95665 643.00679,152.51593 645.82799,152.51593 C 648.63446,152.51593 654.51179,157.86983 677.52485,181.38989 C 697.3865,201.68912 705.7764,211.11634 705.7764,213.13439 C 705.7764,217.33017 647.87975,276.47996 643.77287,276.47996 C 641.59638,276.47996 633.5148,269.10812 613.5767,248.93565 z"
       id="path2749" />
    <path
       id="path2736"
       style="opacity:1;fill:#555753;fill-opacity:1;stroke:#2e3436;stroke-width:2;stroke-miterlimit:4;stroke-dasharray:none;stroke-opacity:1;display:inline"
       d="M 611.5767,248.93565 C 596.60333,233.78628 583.91476,220.70296 583.37991,219.86162 C 580.45192,215.25577 582.74738,212.19668 611.37551,182.55256 C 635.12845,157.95665 641.00679,152.51593 643.82799,152.51593 C 646.63446,152.51593 652.51179,157.86983 675.52485,181.38989 C 695.3865,201.68912 703.7764,211.11634 703.7764,213.13439 C 703.7764,217.33017 645.87975,276.47996 641.77287,276.47996 C 639.59638,276.47996 631.5148,269.10812 611.5767,248.93565 z M 672.35641,245.55484 C 691.80693,225.57661 701.22042,215.01355 701.22042,213.16607 C 701.22042,210.00642 646.80337,153.6772 643.82122,153.74987 C 641.77674,153.79969 587.69209,208.75195 585.27466,213.23563 C 583.26945,216.95473 584.55865,218.60127 609.84489,244.61667 C 637.42874,272.99596 639.72688,275.20199 641.70732,275.20199 C 642.68909,275.20199 656.48119,261.86078 672.35641,245.55484 z" />
    <path
       style="opacity:1;fill:#ffffff;fill-opacity:1;fill-rule:evenodd;stroke:#000000;stroke-width:0.88228052999999984px;stroke-linecap:butt;stroke-linejoin:miter;stroke-opacity:0.64257026"
       d="M 701.60254,186.41949 C 690.88601,180.03177 685.81566,174.44515 685.81566,174.44515 C 666.02517,184.58278 645.00785,220.57899 645.00785,220.57899 C 635.15821,208.5247 625.25475,205.1625 625.25475,205.1625 C 620.8025,210.33455 613.1281,217.22739 613.1281,217.22739 C 631.02773,221.41829 646.05199,236.79731 646.05199,236.79731 C 678.53082,192.4682 701.60254,186.41949 701.60254,186.41949 z"
       id="path2161"
       sodipodi:nodetypes="ccccccc"
       inkscape:export-xdpi="72.839996"
       inkscape:export-ydpi="72.839996" />
  </g>
</svg>
